<svg width="360" height="100" viewBox="0 0 360 100" fill="none" xmlns="http://www.w3.org/2000/svg">
  <defs>
    <linearGradient id="logoGrad1" x1="0" y1="0" x2="1" y2="1">
      <stop offset="0%" stop-color="#0B4DA8" />
      <stop offset="100%" stop-color="#1B8AF6" />
    </linearGradient>
    <linearGradient id="logoGrad2" x1="0" y1="0" x2="1" y2="1">
      <stop offset="0%" stop-color="#1B83F9" />
      <stop offset="100%" stop-color="#4EB0F8" />
    </linearGradient>
  </defs>
  <rect x="10" y="10" width="80" height="80" rx="18" fill="url(#logoGrad2)" />
  <path d="M24 20H66" stroke="#EAF4FF" stroke-width="8" stroke-linecap="round" />
  <path d="M24 36H66" stroke="#EAF4FF" stroke-width="8" stroke-linecap="round" />
  <rect x="20" y="42" width="18" height="28" rx="6" fill="#F4FAFF" />
  <rect x="40" y="42" width="18" height="28" rx="6" fill="#F4FAFF" />
  <rect x="60" y="42" width="18" height="28" rx="6" fill="#F4FAFF" />
  <path d="M56 30L76 10" stroke="url(#logoGrad1)" stroke-width="14" stroke-linecap="round" />
  <path d="M76 10L90 10" stroke="url(#logoGrad1)" stroke-width="14" stroke-linecap="round" />
  <path d="M82 18L82 40" stroke="url(#logoGrad1)" stroke-width="14" stroke-linecap="round" />
  <path d="M64 62L88 38" stroke="#fff" stroke-width="8" stroke-linecap="round" />
  <text x="110" y="42" font-family="Inter, Arial, sans-serif" font-size="38" font-weight="800" fill="#0D3A6D">EVENT</text>
  <text x="238" y="42" font-family="Inter, Arial, sans-serif" font-size="38" font-weight="800" fill="url(#logoGrad1)">IX</text>
  <path d="M226 22C226 16.48 230.48 12 236 12H248C253.52 12 258 16.48 258 22V32" stroke="#0D3A6D" stroke-width="8" stroke-linecap="round" />
  <path d="M242 30L254 42" stroke="#0D3A6D" stroke-width="8" stroke-linecap="round" />
  <path d="M254 22L242 34" stroke="#0D3A6D" stroke-width="8" stroke-linecap="round" />
  <text x="110" y="72" font-family="Inter, Arial, sans-serif" font-size="15" fill="#4C5A75">Event & Conference Scheduling</text>
</svg>
